<svg width="419" height="147" viewBox="0 0 419 147" fill="none" xmlns="http://www.w3.org/2000/svg">
<path d="M21 118C20.01 116.67 16.02 114.68 10.685 109.355C7.29514 105.971 6.68 101.02 5.17 97.015C3.51482 92.6249 3.34 87.02 3.165 67.245C3.10015 59.9171 6.32 56.02 8.99 52.015C11.66 48.01 14.32 44.02 22.8 35.035C27.1192 30.4586 31.64 26.36 35.985 24.005C39.7982 21.9382 43.98 20.34 47.985 19.005C52.5121 17.496 57.98 17.34 71.945 17.33C78.3123 17.3254 81.98 20.66 85.985 22.16C90.5774 23.88 93.32 28.98 95.16 32.985C97.0616 37.1242 99.32 40.98 100.995 44.985C102.624 48.8797 103.66 53.64 104.165 61.305C104.585 67.681 105.66 74.98 106.165 81.475C106.8 89.6381 106.34 100.98 104.84 104.985C103.242 109.251 101.34 112.98 99.01 116.985C96.7505 120.869 92.02 122.32 88.015 123.995C84.1203 125.624 80.02 126 76.015 126.995C71.9179 128.013 68.02 129 63.19 129.83C55.1266 131.216 44.42 129 37.015 128.17C33.01 127.01 29.02 123.68 25.015 121.01C24.01 120.34 23.02 119.68 22 119" stroke="black" stroke-width="5" stroke-linecap="round"/>
<path d="M60.9366 58.0586C60.6066 60.0486 59.2766 64.0386 60.5866 72.5286C60.9297 74.7525 65.5366 74.0586 67.7316 73.7286C69.9266 73.3986 70.9166 72.7386 71.5916 71.9036C74.3121 68.5382 76.2566 64.0786 76.4416 58.5786C76.521 56.2155 72.9466 55.7286 70.2916 55.2286C68.6266 55.0586 66.3166 55.0586 64.9616 55.5536C63.6066 56.0486 63.2766 57.0386 62.9366 58.0586" stroke="black" stroke-width="2" stroke-linecap="round"/>
<path d="M290.868 121.836C288.878 121.506 284.888 120.176 280.718 117.516C275.245 114.025 273.548 108.856 270.878 103.856C268.273 98.9788 266.548 94.1964 264.873 89.8514C263.388 85.9986 263.208 81.8564 262.038 77.5214C260.553 72.0213 260.868 57.9564 261.698 48.8514C262.064 44.832 262.868 40.8564 263.863 36.8514C265.014 32.2202 268.528 27.8564 271.188 23.6864C274.684 18.2057 278.848 15.5164 282.853 12.8464C286.712 10.2735 290.848 8.51645 294.853 6.84145C300.152 4.62532 307.848 5.17645 313.513 4.67145C319.217 4.16301 326.508 3.17645 342.473 3.00145C348.963 2.93031 354.168 5.49645 358.853 6.99645C363.349 8.43606 370.148 14.7964 375.853 19.4914C380.84 23.5956 387.848 29.1564 391.023 32.6564C394.198 36.1567 397.188 39.8164 400.688 43.8214C403.919 47.5184 405.528 52.4764 407.693 56.8214C409.601 60.6508 410.528 64.8165 411.863 68.9865C413.394 73.7681 414.528 77.8164 415.033 81.8214C415.555 85.9597 416.868 96.4165 415.708 103.986C414.815 109.812 408.888 113.816 404.718 116.991C399.963 120.612 395.888 123.156 391.553 125.991C386.111 129.551 381.888 131.156 377.718 132.996C372.865 135.138 366.248 137.816 360.718 139.996C355.901 141.895 351.228 142.496 346.058 143.666C338.065 145.475 333.228 141.836 328.718 140.841C323.891 139.776 319.888 138.516 315.883 136.011C312.023 133.597 307.888 131.176 303.883 128.016C299.548 125.176 294.888 122.516 290.883 120.011C289.878 119.506 288.888 119.176 286.868 117.836" stroke="black" stroke-width="5" stroke-linecap="round"/>
<path d="M302 54.6742C301.34 52.6842 300 49.3542 300.495 47.0242C301.454 42.5124 307.98 41.3542 316.965 41.0042C319.015 40.9244 319.98 41.9942 320.655 42.8292C323.376 46.1946 324.66 50.6542 324.505 57.6492C324.455 59.8947 321.01 60.3342 317.2 61.3342C309.76 61.6742 304.01 61.3442 302.51 59.8542C302 58.6942 302 56.7142 300 52.6742" stroke="black" stroke-width="2" stroke-linecap="round"/>
<path d="M63.1635 57.7833C63.1635 57.9801 63.0982 58.3747 63.0157 58.8034C62.8915 59.4482 62.5385 59.858 62.3729 60.3525C62.1972 60.877 62.0757 61.3414 61.9936 61.7375C61.9282 62.0531 62.1073 59.8304 62.2893 59.367C62.4477 58.9637 62.9637 58.9047 64.6731 58.346C65.3661 58.1195 65.7327 57.7853 66.1125 57.4713C66.2027 57.3966 66.2608 57.2908 66.2781 57.1914C66.2954 57.092 66.2628 56.9941 66.1644 56.9437C65.9273 56.8222 65.6368 56.9259 65.4558 57.0243C65.2618 57.1298 65.2076 57.3867 65.2071 57.5351C65.2059 57.8968 66.0294 57.3225 66.5239 57.2067C67.2332 57.0408 68.1714 56.9922 68.6832 56.9101C69.0938 56.8442 70.0128 56.7944 70.6941 56.8928C71.1856 56.9637 71.5674 57.1563 71.9634 57.3704C72.3467 57.5776 72.7541 57.7497 73.1501 57.9638C73.5223 58.165 73.9408 58.2441 74.3368 58.2941C74.5385 58.3195 74.7982 58.5398 75.0291 58.7381C75.264 58.9398 74.4076 57.8525 73.7801 57.2414C73.6533 57.1179 73.5492 57.0594 73.515 57.091C72.8156 57.7398 74.7319 59.6899 75.0296 60.8119C75.1607 61.3059 75.1957 61.6391 75.0973 61.8201C74.9918 62.0141 74.7675 62.1336 74.636 62.2329C74.5831 62.2729 74.5045 62.1365 74.4872 62.0045C74.4134 61.4422 74.635 60.8529 74.7171 60.1602C74.7519 59.8665 74.7339 59.3755 74.587 60.1676C74.4402 60.9597 74.1465 63.0483 73.9789 64.1732C73.742 65.7627 73.5808 66.4838 73.4656 66.6826C73.3604 66.8641 73.382 64.9826 73.4641 62.8743C73.5369 61.0041 73.9744 59.4368 74.1237 58.9705C74.4149 58.0613 73.4839 62.2908 73.2347 63.2036C73.0884 63.7394 72.9538 64.1757 72.7076 65.1799C72.576 65.7167 72.493 66.1871 72.3283 66.5995C72.1194 67.1227 71.7038 67.7338 71.4873 68.297C71.3811 68.573 71.5684 68.9888 71.7656 69.3512C71.8454 69.4977 71.9629 69.5178 72.0623 69.5183C72.1617 69.5188 72.2596 69.4862 72.359 69.4204C72.5728 69.279 72.853 68.5358 73.2149 67.4821C73.4506 66.796 73.9072 65.8015 74.3354 64.3863C74.6578 63.3207 74.635 62.1415 74.5861 60.9236C74.5498 60.0208 74.2731 59.5643 74.0436 59.416C73.684 59.1835 73.1862 59.4635 72.8248 59.6934C71.8774 60.296 71.3735 61.2742 70.8158 62.5029C70.4139 63.3882 69.9317 64.8739 69.5974 66.0873C69.0192 68.1864 68.9981 69.5149 69.0471 70.0914C69.066 70.3136 69.194 70.3742 69.3097 70.3589C69.5783 70.3233 69.8536 69.9816 70.1987 69.6039C70.6084 69.1554 71.4309 67.4886 72.4525 65.265C72.9643 64.1508 73.0191 63.2283 73.118 62.0446C73.2166 60.8644 73.0211 60.0272 72.758 59.5994C72.5234 59.218 72.2299 59.0036 71.9179 58.8721C71.5213 58.7049 71.0442 58.7386 70.5676 58.9191C69.2217 59.4287 68.211 61.0744 67.4678 62.2947C67.1494 62.8175 67.0866 63.3193 67.0534 63.7139C67.0203 64.1084 67.1845 64.4407 67.3486 64.6874C67.5225 64.9487 67.8105 65.0351 68.0241 65.0845C68.2645 65.1402 68.5027 65.036 68.7163 64.8556C69.0002 64.6157 69.2276 64.148 69.5069 63.4098C69.933 62.284 69.8892 60.6274 69.545 59.0798C69.3974 58.4159 68.9072 58.1195 68.5749 57.9351C68.0225 57.6285 67.4515 57.6844 66.9254 57.7497C66.3683 57.8188 65.3471 58.7 63.9972 59.819C63.0438 60.6093 62.67 61.2425 62.6196 61.5718C62.4652 62.5798 65.4637 61.3137 66.2608 60.7847C66.3492 60.726 66.1659 60.6195 65.9844 60.5859C65.1568 60.4326 64.4194 61.0111 63.8577 61.4077C63.5147 61.6499 63.4276 62.0347 63.4271 62.2156C63.4268 62.3047 63.5571 62.364 63.6728 62.3486C63.7885 62.3333 63.919 62.2354 64.949 61.7118C65.979 61.1881 67.9044 60.2417 69.0105 59.7216C70.3293 59.1014 70.7762 59.0363 71.0076 59.0358C71.1686 59.0354 69.3749 59.7562 66.8735 60.5631C65.7855 60.9141 65.0247 61.0111 64.6706 60.9478C64.3166 60.8845 64.3819 60.6235 64.5134 60.3421C65.1004 59.0865 66.9432 57.8248 67.761 57.2888C67.8108 57.2562 67.8114 57.451 67.7462 57.5835C67.3556 58.3764 66.2648 58.8039 66.065 58.9364C65.1804 59.5232 67.8075 58.5744 68.3356 58.6234C68.4799 58.6368 68.3415 58.7702 68.209 58.8533C67.7512 59.1403 67.319 59.1342 67.0712 59.1841C66.9514 59.2082 67.8708 58.5784 69.0392 57.9034C70.8671 56.8475 72.6552 56.7944 72.9355 56.8596C73.3551 56.9573 72.6255 57.6824 71.7068 58.5532C69.8339 60.3283 69.1979 60.4514 68.9986 60.8475C68.7998 61.2427 68.472 61.7034 68.2901 62.1494C68.1875 62.4009 68.0755 62.628 68.0587 62.8253C68.0214 63.2627 68.8953 63.7129 69.4743 63.9967C69.5797 64.0484 69.6884 64.0135 69.7715 63.9645C70.1381 63.7485 70.2165 63.2243 70.5458 62.6483C70.6705 62.4301 70.8731 62.1405 71.023 61.9402C71.1728 61.74 71.2707 61.6421 71.3211 63.1091C71.3716 64.5762 71.3716 67.6112 71.3389 69.2236C71.3063 70.8361 71.241 70.934 71.1584 71.017C71.0759 71.1001 70.978 71.1654 70.9112 71.1337C70.3356 70.8608 70.7129 69.4565 70.663 68.4508C70.6456 68.1007 70.5804 67.8386 70.5315 67.6409C70.5115 67.5601 70.3846 67.5736 70.3015 67.6878C69.571 68.6923 69.0001 70.3713 68.6708 70.8183C68.4223 71.1556 68.4048 69.8175 68.4211 69.3898C68.4351 69.0243 68.6016 68.7613 68.7989 68.6293C68.8862 68.5708 68.9962 68.6278 69.0629 68.6936C69.1993 68.8279 69.2286 69.056 69.2617 69.2533C69.3327 69.6759 68.8014 69.8808 68.7183 69.9302C68.699 69.9417 68.8637 69.947 68.9799 70.0776C69.607 70.7821 69.3275 71.5609 69.328 71.775C69.3284 71.9494 67.4001 71.9249 64.7636 71.9412C63.4561 71.9493 62.8055 72.1227 62.275 72.2211C62.172 72.2402 62.0777 72.2868 62.3862 72.3036C64.2476 72.405 64.8407 72.2215 65.3703 72.1395C66.3285 71.9909 67.5128 71.4977 67.8925 71.201C68.3285 70.8604 68.3375 70.1804 68.3558 69.6192C68.3753 69.0218 66.8581 69.5178 66.248 69.6662C65.6953 69.8005 65.2758 70.1112 64.8462 70.3253C64.44 70.5277 63.6956 70.6709 63.0503 70.8202C62.4851 70.951 62.045 70.9359 61.7642 70.9033C61.3985 70.8608 62.4693 70.6393 62.898 70.5409C63.5293 70.396 65.3569 69.9826 66.5075 69.8318C66.7253 69.8033 67.0183 69.7492 67.364 69.7003C67.52 69.6782 67.6117 69.5534 67.5968 69.4867C67.4829 68.9738 65.4499 69.68 63.4498 70.0944C62.6819 70.2535 62.1449 70.2437 61.5995 70.0632C61.4795 70.0235 61.3854 69.9806 61.3024 69.9149C61.2193 69.8491 61.154 69.7512 61.1694 69.6681C61.2513 69.224 62.0737 69.2231 64.8828 68.3188C65.985 67.9639 66.7849 67.7398 67.3155 67.6562C67.7331 67.5904 68.0082 67.3106 68.1076 67.1627C68.1537 67.0942 68.0112 66.9822 67.9934 66.8829C67.9576 66.6831 68.206 66.4542 68.3544 66.1911C68.424 66.0676 68.4048 65.928 68.3069 65.8608C67.7909 65.5064 66.8937 66.3177 66.1654 66.6826C65.6894 66.9211 65.2422 67.2097 64.8462 67.3917C64.7453 67.438 64.6489 67.5064 64.6311 67.491C64.538 67.4109 64.7784 67.179 65.0726 66.6064C65.768 65.2531 66.6218 63.789 67.0668 62.9148C67.201 62.6512 67.2181 62.7912 67.2018 62.9074C67.1712 63.1249 66.7929 64.4625 66.2331 66.5046C66.0123 67.3102 65.8692 67.6329 65.7856 67.85C65.665 68.1633 65.7011 66.6994 65.8163 64.2281C65.8677 63.1255 65.9325 62.5993 65.8999 62.1701C65.8921 62.0687 65.6694 62.626 65.3421 63.7401C64.2494 67.459 63.922 67.7704 63.8563 67.8535C63.5941 68.1846 63.6916 66.7864 63.6417 65.8796C63.5861 64.871 63.4938 64.0827 63.4276 63.0607C63.4185 62.9211 63.3296 63.0226 63.1492 64.6395C62.9687 66.2564 62.675 69.3893 62.5074 71.0521C62.3397 72.715 62.3071 72.8129 62.2903 72.7002C62.2255 72.2656 62.2408 71.7291 62.1588 69.8496C62.0853 68.1669 62.0441 65.0004 62.0104 63.5166C61.9768 62.0327 61.9768 62.3264 61.9931 62.5267C62.055 63.2866 62.0104 64.2746 61.9605 64.9011C61.9128 65.4997 61.8126 65.9557 61.7464 67.1241C61.7259 67.4856 61.5812 67.7042 61.5486 67.853C61.4008 68.527 61.4487 65.8628 61.6628 65.1206C61.9282 64.2005 62.6334 63.1591 63.0631 62.8441C63.7574 62.3352 65.3035 62.8584 65.7481 63.1378C66.5427 63.6372 66.427 64.8027 66.509 65.2314C66.6639 66.0404 65.8712 67.7615 65.4227 68.5774C65.1407 69.0904 64.7468 69.2212 64.5658 69.2711C64.034 69.4179 64.4155 67.9059 64.7438 67.1815C65.3082 65.9363 66.0947 65.8272 66.5407 65.6294C67.0379 65.4089 68.0033 66.1515 68.6669 66.7805C69.0864 67.1781 69.1623 67.6705 69.147 68.0992C69.1056 69.2575 66.9926 70.3386 66.4284 70.6388C66.3359 70.688 66.2311 70.7045 66.1318 70.6234C65.8683 70.4085 65.801 70.0469 65.7842 69.8333C65.7638 69.5748 66.1283 69.322 66.5229 69.0916C66.8923 68.8759 67.2171 68.8592 67.3981 68.9082C67.4911 68.9333 67.5464 69.055 67.4821 69.236C66.8898 70.0123 66.2984 70.4059 65.8188 70.6551C65.7031 70.7045 65.5725 70.7698 65.3391 70.8371" stroke="black" stroke-width="2" stroke-linecap="round"/>
<path d="M301.633 52.0399C301.633 52.0257 301.633 52.0114 301.64 50.9854C301.647 49.9595 301.661 47.9222 301.675 46.8371C301.692 45.564 301.747 45.3924 301.783 45.0759C301.789 45.0269 301.848 45.0599 301.877 45.1031C301.906 45.1463 301.92 45.2033 302.034 45.6315C302.148 46.0598 302.362 46.8576 302.665 48.8428C302.967 50.8281 303.352 53.9766 303.55 55.6199C303.748 57.2632 303.748 57.306 303.705 55.7822C303.662 54.2585 303.577 51.167 303.547 49.4462C303.517 47.7253 303.546 47.4689 303.561 47.3012C303.575 47.1335 303.575 47.0622 303.589 47.0612C303.604 47.0601 303.632 47.1313 303.975 48.5784C304.317 50.0255 304.972 52.8464 305.78 52.6683C306.588 52.4902 307.528 49.2277 308.176 47.1624C308.824 45.0971 309.152 44.3277 309.349 43.8958C309.547 43.4639 309.604 43.3927 309.619 43.4699C309.634 43.5472 309.605 43.7752 309.413 44.3413C309.22 44.9075 308.864 45.8051 308.858 46.1392C308.853 46.4985 309.947 45.7533 310.679 45.3941C311.357 45.0615 311.977 44.9602 312.422 44.8955C312.624 44.8661 312.782 44.8734 312.913 44.9019C313.043 44.9304 313.143 44.9874 313.173 45.1022C313.245 45.379 312.774 45.8634 311.743 46.623C311.076 47.1145 310.029 47.696 309.343 48.0828C308.658 48.4696 308.345 48.6121 308.169 48.6641C307.993 48.7161 307.965 48.6734 307.972 48.6229C308.005 48.3676 308.323 48.2417 308.411 48.1689C308.542 48.0596 307.681 48.2974 306.983 48.4485C306.434 48.5674 305.739 48.543 305.311 48.3643C304.569 48.0547 304.44 47.8531 304.173 47.4294C304.041 47.2184 304.007 47.0044 303.943 46.8097C303.85 46.5294 303.533 46.4285 303.403 46.2197C303.345 46.1266 303.316 45.9825 303.345 45.8029C303.391 45.5123 303.661 45.3924 303.891 45.284C304.399 45.0443 304.74 45.0461 304.963 45.0103C305.298 44.9564 305.647 44.9166 305.855 44.8808C306.034 44.8501 306.236 44.8303 306.639 44.7156C306.872 44.6493 307.1 44.5859 307.323 44.4924C307.517 44.4114 307.719 44.2984 307.992 44.1473C308.325 43.963 308.696 43.9098 308.785 43.8805C308.88 43.8495 308.444 43.8805 307.814 43.9517C307.183 44.023 306.172 44.1654 305.629 44.2459C305.043 44.333 304.943 44.3554 304.885 44.3554C304.829 44.3554 305.085 44.2984 305.293 44.1764C305.561 44.0193 306.118 43.8244 307.008 43.5373C307.507 43.376 308.125 43.2502 308.868 43.1198C309.611 42.9894 310.465 42.8755 310.949 42.8167C311.647 42.7319 312.162 42.6579 312.676 42.6214C313.03 42.5963 313.274 42.5711 313.788 42.5495C314.23 42.5309 315.042 42.5422 315.482 42.5351C315.922 42.5279 315.965 42.5137 316.492 42.5063C317.02 42.499 318.032 42.499 318.574 42.5275C319.117 42.556 319.159 42.613 319.188 42.6637C319.24 42.7531 319.247 42.8439 319.218 42.9229C319.202 42.9663 319.133 42.9877 318.049 43.0309C316.965 43.074 314.857 43.131 313.293 43.2245C311.73 43.318 310.775 43.4462 310.248 43.5265C309.647 43.6181 309.391 43.6931 308.455 44.0355C307.691 44.315 306.393 44.9477 305.647 45.3058C304.746 45.7383 304.569 45.9091 304.497 46.0024C304.351 46.192 304.352 46.3983 304.381 46.4846C304.394 46.5234 304.466 46.514 304.524 46.5068C304.582 46.4997 304.639 46.4855 306.67 46.0222C308.701 45.559 312.704 44.6472 315.237 44.1561C317.769 43.6651 318.709 43.6223 319.201 43.6359C319.692 43.6495 319.707 43.7208 319.714 43.8857C319.733 44.3067 319.693 44.6282 319.635 44.7359C319.584 44.8327 319.264 45.0159 318.234 45.4383C317.497 45.7404 316.292 46.1315 313.439 46.7931C310.585 47.4547 306.112 48.3522 303.765 48.8288C301.418 49.3054 301.332 49.3339 301.26 49.3628C301.013 49.4611 300.856 49.5355 300.784 49.6217C300.751 49.6618 300.741 49.7078 300.869 49.7227C300.997 49.7376 301.267 49.7233 301.955 49.5664C302.643 49.4095 303.74 49.1103 304.619 48.8351C305.497 48.5599 306.124 48.3177 306.468 48.1787C306.859 48.0208 307.142 47.8678 307.544 47.6666C307.788 47.5447 308.191 47.25 309.03 46.7767C309.518 46.5011 310.168 46.2178 310.569 46.0423C311.106 45.8076 311.616 45.7373 312.241 45.6725C312.679 45.6272 313.028 45.679 313.43 45.7649C314.358 45.9635 314.698 46.2109 314.892 46.3547C314.948 46.396 314.845 46.4414 312.856 46.6841C310.867 46.9267 306.978 47.3826 304.875 47.6388C302.771 47.895 302.572 47.9378 302.491 47.9455C302.409 47.9533 302.452 47.9248 304.305 47.3901C306.157 46.8554 309.819 45.8154 312.161 45.2013C314.503 44.5872 315.415 44.4305 315.906 44.3498C316.397 44.269 316.44 44.269 316.483 44.2904C316.526 44.3118 316.569 44.3545 316.591 44.4193C316.613 44.484 316.613 44.5695 315.502 45.1834C314.391 45.7973 312.168 46.937 310.781 47.7023C309.394 48.4675 308.91 48.8236 307.898 49.8904C306.886 50.9572 305.362 52.7238 304.462 53.8048C303.563 54.8858 303.335 55.2277 303.211 55.4252C303.086 55.6227 303.072 55.6655 303.72 54.5193C304.368 53.3731 305.679 51.0366 305.691 51.1722C305.704 51.3077 304.379 53.9861 303.697 55.3943C303.014 56.8026 303.014 56.8596 303.043 56.8889C303.071 56.9183 303.128 56.9183 303.15 56.9397C303.292 57.076 302.886 57.6773 302.719 58.1403C302.678 58.2541 302.654 58.3425 302.654 58.4002C302.653 58.5912 303.213 58.1573 303.574 57.7977C303.793 57.5788 304.005 56.9943 304.328 55.9625C304.523 55.3413 304.609 54.4748 304.675 53.5714C304.741 52.6681 304.741 51.742 304.748 51.2151C304.759 50.3711 304.813 50.0264 304.834 49.8388C304.861 49.6122 305.685 49.1794 306.201 48.9391C306.497 48.8009 306.87 48.9026 306.985 48.9598C307.349 49.1411 307.26 50.064 307.166 50.9967C307.117 51.4895 307.002 52.0149 306.702 52.9275C306.401 53.8402 305.902 55.1224 305.318 56.3528C304.733 57.5831 304.078 58.7229 303.719 59.3314C303.267 60.0973 303.158 60.2421 303.108 60.2855C303.091 60.2997 303.072 60.2434 303.243 59.4022C303.413 58.561 303.77 56.9226 304.259 55.4304C304.749 53.9382 305.362 52.6417 305.756 51.8456C306.282 50.781 306.51 50.4862 306.597 50.3929C306.69 50.2917 306.798 50.1555 306.927 50.0404C307.088 49.8978 307.359 49.9392 307.69 49.9388C307.813 49.9386 307.892 50.0678 307.978 50.2112C308.09 50.3981 308.165 51.0275 308.237 52.1036C308.276 52.6799 308.224 53.3221 308.095 54.0513C307.967 54.7804 307.739 55.5783 307.386 56.4879C307.034 57.3975 306.564 58.3948 306.158 59.1721C305.752 59.9494 305.424 60.4765 305.227 60.7837C304.98 61.1673 304.899 61.2782 304.856 61.3287C304.837 61.3514 304.785 61.308 304.756 61.2577C304.727 61.2074 304.712 61.1362 304.726 60.7647C304.74 60.3932 304.783 59.7236 304.884 59.0937C304.984 58.4638 305.141 57.894 305.328 57.3582C305.516 56.8225 305.73 56.3381 306.246 55.5044C306.762 54.6708 307.574 53.5026 308.234 52.6301C308.895 51.7576 309.379 51.2162 309.65 50.9302C309.921 50.6442 309.964 50.6299 310.007 50.6155C310.051 50.601 310.093 50.5868 310.13 50.6079C310.321 50.7198 310.267 51.2594 310.231 51.772C310.223 51.8806 310.224 51.9803 310.152 52.3024C310.081 52.6245 309.939 53.1658 309.58 54.1214C309.222 55.077 308.652 56.4305 308.344 57.1491C308.017 57.9141 307.95 57.9972 307.886 58.0762C307.853 58.1158 307.807 58.1409 307.778 58.1342C307.749 58.1275 307.734 58.0848 307.72 58.0984C307.502 58.3033 307.462 58.8446 307.375 59.0762C307.358 59.119 307.346 59.1624 307.339 59.2342C307.331 59.3061 307.331 59.4058 307.438 59.4786C307.72 59.6703 308.235 59.6381 308.688 59.631C309.013 59.6259 309.401 59.4952 310.516 58.874C311.394 58.385 312.828 57.4122 313.626 56.8851C314.534 56.2861 314.755 56.1131 314.9 55.991C314.941 55.9564 314.816 55.9115 314.124 55.8969C313.431 55.8822 312.149 55.8822 311.375 55.8964C310.371 55.9149 310.08 55.997 309.98 56.0616C309.932 56.0921 309.908 56.1403 309.921 56.2051C310.003 56.5852 310.566 56.8734 311.357 57.1478C311.808 57.3041 312.251 57.1493 312.574 56.9701C312.903 56.7878 313.072 56.3877 313.195 55.9504C313.347 55.4053 313.032 54.7912 312.609 54.317C312.164 53.8186 311.35 53.7676 310.611 53.631C309.225 53.3748 308.872 53.6226 308.756 53.6942C308.659 53.7546 309.17 53.9101 310.136 54.0107C310.815 54.0814 311.886 54.0828 312.215 54.1901C312.545 54.2974 312.103 54.4826 311.456 54.6848C310.808 54.8871 309.967 55.1008 309.242 55.2251C308.517 55.3494 307.933 55.3779 307.518 55.3712C307.103 55.3646 306.875 55.3218 306.701 55.2357C306.526 55.1496 306.412 55.0213 306.375 54.8342C306.291 54.4131 306.681 53.7564 307.205 53.0095C307.457 52.6503 307.743 52.3767 308.31 51.8879C308.877 51.3992 309.732 50.7154 310.307 50.299C310.883 49.8826 311.154 49.7544 311.485 49.6314C312.193 49.369 312.669 49.2769 312.813 49.2912C312.962 49.306 313.087 49.4203 313.173 49.5493C313.216 49.6141 313.203 49.7069 313.16 49.8151C313.061 50.0651 312.73 50.2975 312.249 50.4987C311.698 50.7296 311.004 50.7158 310.422 50.7232C310.052 50.7278 309.822 50.6014 309.699 50.4795C309.6 50.3805 310.063 50.1844 310.722 50.0193C311.107 49.9229 311.609 49.8684 312.251 49.8887C312.893 49.909 313.662 50.0229 314.357 50.1885C315.053 50.3541 315.651 50.5678 316.066 50.7633C316.725 51.0735 317.072 51.5055 317.338 51.9216C317.469 52.1261 317.504 52.3663 317.469 52.5692C317.435 52.7721 317.306 52.9431 317.098 53.081C316.889 53.2189 316.604 53.3187 315.866 53.4484C315.128 53.5781 313.946 53.7348 313.201 53.8013C312.457 53.8678 312.186 53.8393 311.876 53.7748C311.217 53.6378 310.643 53.351 310.262 52.9996C310.08 52.8317 310.038 52.577 310.008 52.3527C309.979 52.1284 309.993 51.9147 310.264 51.5055C310.535 51.0962 311.062 50.4978 311.433 50.1326C311.965 49.61 312.395 49.4647 312.775 49.3426C313.158 49.2195 313.518 49.248 313.762 49.2981C313.868 49.3198 313.921 49.3909 313.964 49.5627C314.078 50.0109 313.98 50.6977 313.737 51.4444C313.615 51.8199 313.351 52.134 313.077 52.4239C312.803 52.7138 312.489 52.956 312.15 53.1591C311.478 53.5612 310.745 53.7232 310.099 53.7452C309.794 53.7556 309.538 53.639 309.356 53.5023C309.174 53.3657 309.074 53.1805 309.066 52.964C309.047 52.4993 309.53 51.9708 310.176 51.4252C310.507 51.1452 310.907 50.9364 311.24 50.7692C311.831 50.473 312.494 50.3567 313.269 50.299C314.098 50.2373 314.712 50.4555 315.006 50.7497C315.145 50.8881 315.201 51.0582 315.217 51.2244C315.232 51.3906 315.189 51.5616 315.075 51.7209C314.826 52.0662 314.356 52.2407 313.783 52.3272C313.441 52.3788 312.981 52.2998 312.519 52.2279C312.056 52.156 311.6 52.0563 311.237 51.891C310.569 51.5868 310.196 50.9779 309.988 50.4465C309.824 50.0314 310.265 49.5243 310.738 48.986C310.984 48.7059 311.297 48.4619 311.707 48.2656C312.118 48.0694 312.631 47.9412 313.166 47.8823C313.701 47.8233 314.242 47.8376 314.649 47.909C315.332 48.0288 315.719 48.426 315.964 48.8277C316.216 49.2425 316.181 49.7354 316.003 50.1231C315.895 50.3586 315.469 50.4823 315.022 50.6273C314.575 50.7724 314.048 50.8864 313.598 50.9237C313.149 50.9611 312.792 50.9183 312.445 50.8464C311.763 50.7053 311.148 50.3584 310.673 49.9349C310.462 49.7466 310.398 49.5256 310.397 49.3587C310.395 49.1919 310.481 49.0637 310.689 48.9193C310.897 48.7748 311.224 48.6181 311.721 48.4875C312.217 48.3569 312.873 48.2572 313.474 48.2628C314.075 48.2684 314.602 48.3824 315.023 48.5337C315.771 48.8026 316.209 49.2178 316.496 49.555C316.784 49.8931 316.886 50.3113 316.816 50.6345C316.773 50.8284 316.375 50.9149 315.978 51.0165C315.122 51.236 314.371 51.2201 313.847 51.0983C313.29 50.9689 312.788 50.6027 312.406 50.2224C312.237 50.0532 312.239 49.8278 312.281 49.6609C312.363 49.3373 313.011 49.1198 313.987 48.9257C314.502 48.8231 315.076 48.8029 315.526 48.8236C316.297 48.8591 316.813 49.1746 317.172 49.5118C317.347 49.6767 317.445 49.8917 317.419 50.1155C317.392 50.3394 317.221 50.5816 316.905 50.7776C316.589 50.9736 316.133 51.116 315.699 51.1752C314.873 51.2877 314.212 51.091 313.753 50.8546C313.517 50.7336 313.35 50.4901 313.29 50.2375C313.231 49.9849 313.302 49.7 313.46 49.4393C313.617 49.1785 313.86 48.9506 314.205 48.7263C314.551 48.502 314.992 48.2883 315.533 48.0785C316.074 47.8687 316.701 47.6692 317.273 47.5594C317.846 47.4495 318.344 47.4352 318.808 47.4849C319.271 47.5345 319.684 47.6485 320.025 47.7856C320.643 48.0339 321.001 48.426 321.202 48.7779C321.296 48.9411 321.346 49.087 321.333 49.2316C321.32 49.3762 321.234 49.5187 320.991 49.6562C320.747 49.7937 320.348 49.9219 319.822 49.9737C319.296 50.0255 318.655 49.997 318.061 49.9182C317.467 49.8395 316.94 49.7112 316.533 49.5811C315.843 49.3601 315.292 48.9769 314.761 48.4821C314.487 48.2274 314.315 47.8592 314.283 47.5335C314.252 47.2077 314.394 46.9085 314.71 46.6262C315.025 46.3439 315.51 46.0874 316.073 45.8841C316.636 45.6807 317.262 45.5383 317.87 45.4649C318.478 45.3915 319.048 45.3915 319.612 45.4627C320.176 45.534 320.718 45.6764 321.175 45.8638C321.632 46.0512 321.988 46.2791 322.257 46.5247C322.75 46.9749 322.93 47.576 322.959 48.143C322.989 48.7129 322.401 49.2027 321.727 49.6478C321.365 49.8865 320.91 50.0644 320.483 50.2312C320.056 50.3981 319.658 50.5263 319.117 50.6422C318.577 50.7582 317.907 50.8579 317.441 50.9093C316.735 50.9871 316.313 50.9179 316.025 50.8033C315.898 50.7526 315.852 50.6317 315.836 50.5162C315.771 50.0176 316.38 49.4816 317.085 48.8761C317.418 48.5904 317.72 48.5288 317.85 48.5072C317.907 48.4975 317.951 48.4998 317.987 48.5283C318.023 48.5568 318.052 48.6138 318.059 48.6717C318.074 48.7857 318.009 48.9022 317.923 49.0028C317.819 49.1245 317.607 49.1042 317.427 49.0829C317.225 49.0588 317.06 48.875 316.938 48.6669C316.818 48.4633 316.857 48.1562 316.958 47.7832C317.079 47.3309 317.432 47.0044 317.805 46.8032C318.204 46.5879 318.669 46.5861 319.057 46.6072C319.435 46.6279 319.692 46.9444 319.864 47.2313C320.051 47.5421 319.981 47.9796 319.831 48.4031C319.665 48.8697 319.148 49.1461 318.667 49.3618C318.175 49.5825 317.623 49.5217 317.156 49.4503C316.927 49.4152 316.732 49.2933 316.565 49.1494C316.398 49.0054 316.27 48.8202 316.218 48.5752C316.106 48.0423 316.338 47.4663 316.661 46.8997C317.075 46.1716 317.605 45.7524 317.842 45.5512C318.164 45.2778 318.397 45.2477 318.505 45.2333C318.795 45.1943 319.001 45.8647 319.102 46.0317C319.198 46.1894 319.46 45.4804 319.764 45.2337C319.965 45.0701 320.381 45.0893 320.685 44.9248C321.088 44.7064 321.045 44.399 321.088 44.3556C321.12 44.324 321.089 44.4845 321.067 44.5777C321.043 44.6827 320.946 45.3565 320.759 46.5696C320.667 47.1675 320.657 47.74 320.671 48.112C320.699 48.8611 320.916 49.017 321.031 49.1401C321.187 49.3074 320.773 48.2883 320.643 47.574C320.642 47.1045 320.714 46.9034 320.8 46.7525C320.843 46.6871 320.886 46.6443 321.017 46.6003" stroke="black" stroke-width="2" stroke-linecap="round"/>
<path d="M321.017 46.6003C321.017 46.7717 321.131 47.3454 321.39 47.879C321.553 48.215 321.736 48.4273 321.857 48.6348C322.093 49.0363 322.411 49.5334 322.641 49.9718C322.866 50.3993 322.858 50.6861 322.852 51.1456C322.847 51.4535 322.729 51.7649 322.665 52.273C322.62 52.6252 322.529 53.1658 322.485 53.6014C322.41 54.3479 322.455 54.7873 322.513 55.0954C322.661 55.8936 322.886 56.3674 323.045 56.759C323.108 56.9143 323.146 57.0474 323.146 57.1264C323.147 57.3147 322.845 57.464 322.772 57.6874C322.74 57.7851 322.7 57.8819 322.722 57.954C322.729 57.9791 322.786 57.9406 322.815 57.9045C322.932 57.7593 323.045 57.3958 323.096 57.0202C323.114 56.8901 323.132 56.7465 323.153 56.1539C323.172 55.6468 323.217 54.7209 323.232 54.2224C323.247 53.724 323.233 53.6813 323.211 53.6806C323.052 53.6759 323.075 54.0245 322.868 54.9097C322.69 55.6704 322.305 57.0487 322.114 57.7891C321.884 58.6818 321.851 58.8886 321.78 59.1192C321.696 59.3861 321.449 59.5224 321.269 59.5876C321.073 59.6588 320.888 59.5233 320.729 59.4158C320.577 59.3128 320.628 58.9776 320.514 58.4839C320.433 58.1347 320.342 57.5771 320.284 56.2152C320.225 54.8534 320.211 52.7022 320.211 51.4729C320.21 49.6943 320.283 49.5364 320.29 49.5001C320.303 49.4344 320.454 49.9072 320.741 50.631C320.913 51.0648 321.085 51.654 321.23 52.2825C321.375 52.9111 321.475 53.5665 321.541 54.2246C321.606 54.8828 321.635 55.5239 321.628 55.9752C321.618 56.6704 321.52 56.961 321.477 57.0115C321.458 57.0342 321.406 56.9908 321.348 56.0786C321.291 55.1664 321.219 53.3713 321.19 52.3896C321.157 51.2943 321.189 51.1195 321.196 51.0118C321.203 50.9161 321.218 51.3872 321.14 52.4705C321.098 53.0432 320.961 53.6537 320.86 54.1046C320.696 54.8318 320.442 55.39 320.184 55.8787C320.008 56.2113 319.809 56.3566 319.651 56.4C319.289 56.4995 319.104 55.4682 318.924 54.7936C318.832 54.4496 318.787 54.0906 318.758 53.5438C318.728 52.997 318.728 52.2704 318.743 51.8178C318.762 51.2072 318.858 50.9615 318.944 50.8462C318.975 50.8041 319.03 50.8449 319.059 50.8881C319.217 51.122 319.16 51.7627 318.896 52.6622C318.726 53.2378 318.227 53.6925 317.739 54.1804C317.135 54.7849 316.528 55.0757 316.17 55.1692C315.985 55.2174 315.782 55.2199 315.63 55.1845C315.477 55.1491 315.377 55.0636 315.319 54.9128C315.185 54.5661 315.331 54.0288 315.561 53.4402C315.789 52.854 316.208 52.4017 316.603 52.0283C317.22 51.4448 317.562 51.3638 317.713 51.3207C317.777 51.3022 317.821 51.306 317.8 51.3416C317.725 51.4718 317.25 51.6358 316.575 51.8156C316 51.9688 315.635 51.8961 315.527 51.8461C315.481 51.8245 315.491 51.7533 315.533 51.6954C315.636 51.557 315.878 51.5076 316.165 51.5003C316.51 51.4914 316.742 51.6078 316.821 51.6939C316.859 51.7356 316.886 51.78 316.872 51.8661C316.836 52.089 316.557 52.4405 315.657 53.2703C314.97 53.9037 313.702 54.8409 313.035 55.3542C312.227 55.9764 312.038 56.0972 311.765 56.2914C311.148 56.7299 310.397 57.1626 310.21 57.249C309.984 57.3532 309.793 57.407 309.656 57.551C309.624 57.5845 309.577 57.5944 309.555 57.5661C309.533 57.5378 309.533 57.4666 309.519 57.4512C309.415 57.3398 309.332 57.7377 309.281 57.8607C309.278 57.8698 309.274 57.7973 309.324 57.7679C309.455 57.6906 309.975 57.6958 311.014 57.6097C311.653 57.5567 312.523 57.5236 312.971 57.5657C313.418 57.6077 313.418 57.736 313.404 57.859C313.357 58.266 313.046 58.6849 312.729 58.997C312.391 59.3297 312.039 59.3065 311.75 59.343C311.449 59.3811 311.045 59.4076 310.865 59.5082C310.661 59.6222 310.527 59.7814 310.347 59.8466C310.299 59.864 310.239 59.854 310.231 59.854C310.095 59.854 310.611 59.9114 311.183 59.9971C311.627 60.0637 312.381 60.1967 313.013 60.2699C313.644 60.3431 314.128 60.3573 314.477 60.3504C314.827 60.3435 315.026 60.315 315.449 60.2078C316.519 59.9366 317.231 59.7102 317.339 59.6815C317.522 59.6328 317.891 59.4525 318.167 59.3074C318.364 59.2035 318.641 59.1632 319.029 59.0128C319.262 58.9225 319.462 58.861 319.663 58.768C319.715 58.7443 319.735 58.6892 319.729 58.6458C319.713 58.5477 319.436 58.4587 318.834 58.3723C318.435 58.315 317.834 58.343 317.376 58.3643C316.918 58.3857 316.619 58.4284 316.009 58.6C315.399 58.7717 314.487 59.0708 313.74 59.3389C312.427 59.8096 311.878 60.0271 311.921 59.941C311.971 59.8408 312.379 59.3407 313.025 58.493C313.319 58.1073 313.586 57.8448 313.868 57.6127C314.149 57.3807 314.448 57.1955 314.788 57.0787C315.127 56.9619 315.498 56.9192 316.237 56.8971C316.976 56.8751 318.073 56.8751 318.617 56.8822C319.161 56.8894 319.118 56.9036 319.067 56.911C318.961 56.9264 318.702 56.8328 318.072 56.6891C317.01 56.4467 316.211 56.5872 316.017 56.6088C315.839 56.6286 315.707 56.6303 315.664 56.6306C315.649 56.6306 315.706 56.5738 316.055 56.3951C316.405 56.2163 317.06 55.9029 317.633 55.6702C318.66 55.253 319.203 55.134 319.147 55.1124C318.828 54.9903 318.285 55.1336 317.818 55.191C317.505 55.2295 316.92 55.3633 316.144 55.5141C315.506 55.6806 315.219 55.7522 314.981 55.8241C314.887 55.8533 314.844 55.8675 314.8 55.8822" stroke="black" stroke-width="2" stroke-linecap="round"/>
<path d="M74.3031 53.8285C73.8137 53.7676 72.4639 53.522 71.199 53.2755C68.8772 52.823 65.2585 53.2117 64.5189 53.4583C63.7793 53.7048 63.0426 53.9504 62.303 54.3806C61.2826 54.9743 60.3945 56.2254 60.0548 56.9649C59.7036 57.7293 59.1647 58.8069 58.7622 59.7653C58.3612 60.7199 58.1158 61.5805 58.0226 62.7799C57.9529 63.6767 58.0531 65.5101 58.2063 67.1175C58.4581 69.7579 58.4224 70.9944 58.5756 72.0442C58.6203 72.35 58.607 72.7782 58.6984 73.0589C58.7899 73.3396 58.9727 73.4615 59.1887 73.4938C60.9789 73.7616 63.4063 73.4633 63.6529 73.4643C63.7404 73.4646 63.6556 73.2214 63.5024 73.0663C62.8336 72.3895 61.8127 72.1135 60.8876 71.2206C60.1677 70.5259 59.8406 69.5282 59.5617 68.1174C58.904 64.7895 59.715 63.8666 59.9292 63.0338C60.1871 62.031 60.5755 61.2186 60.822 60.479C61.0685 59.7395 61.3141 59.0027 61.7444 58.2631C61.967 57.8804 62.2984 57.5235 62.484 57.338C63.0664 56.7555 61.4397 58.8106 60.8562 59.7034C60.7103 59.9267 60.5792 60.1032 60.4859 60.106C60.3927 60.1088 60.3318 59.926 60.3308 59.7099C60.3252 58.3983 61.436 56.9714 62.6031 56.0786C63.1457 55.6635 63.591 55.4295 63.8375 55.4286C64.6336 55.4256 62.6732 57.3924 61.9641 58.4108C61.4501 59.1491 61.2551 59.9186 61.0085 60.6886C60.7079 61.6277 60.5164 62.5038 59.9024 63.0292C59.7446 63.1642 59.534 63.1833 59.3789 63.0015C58.9451 62.4928 58.9764 61.2223 59.0373 60.0229C59.0936 58.9154 59.9587 58.264 60.7574 57.4026C62.0325 56.0272 62.8505 55.616 63.5901 55.1534C64.2798 54.7221 65.1883 54.3234 65.9906 53.9836C66.815 53.6345 67.7735 53.3373 69.4604 53.1213C72.0331 52.7918 73.9319 53.2117 74.3003 53.4573C75.0292 53.9433 75.592 54.6262 75.9946 55.303C76.1005 55.4812 76.2088 55.6714 76.1497 55.7351C75.5029 56.4325 74.1221 54.9992 73.3521 54.7527C71.5058 54.1617 68.7651 54.689 68.8538 54.8737C69.8542 56.9579 73.0031 55.4277 73.931 55.6742C74.7051 55.8798 75.4073 56.5947 75.7794 57.3343C75.8413 57.5198 75.9022 57.7027 75.9336 57.9492C75.965 58.1957 75.965 58.5004 75.965 58.8143" stroke="black" stroke-width="2" stroke-linecap="round"/>
<path d="M153.252 17C149.661 32.0204 145.555 52.318 142.877 72C138.097 107.134 137.869 140.307 153.252 138M142.227 77C141.011 69 216.475 70 190.727 118C157.014 180.847 285 60.5 190.727 9" stroke="black" stroke-width="5"/>
</svg>
